<svg width="31" height="30" viewBox="0 0 31 30" fill="none" xmlns="http://www.w3.org/2000/svg">
<path d="M29.565 6.795L27.435 4.68L29.565 2.565C29.8475 2.28255 30.0062 1.89946 30.0062 1.5C30.0062 1.10055 29.8475 0.717459 29.565 0.435003C29.2826 0.152548 28.8995 -0.00613403 28.5 -0.00613403C28.1006 -0.00613403 27.7175 0.152548 27.435 0.435003L11.625 16.245C10.0741 15.2218 8.19853 14.8106 6.36178 15.0913C4.52502 15.372 2.85785 16.3245 1.6833 17.7643C0.508753 19.204 -0.0895449 21.0285 0.00433763 22.8842C0.0982202 24.7399 0.877599 26.4947 2.19146 27.8086C3.50531 29.1224 5.26011 29.9018 7.11581 29.9957C8.97151 30.0896 10.796 29.4913 12.2357 28.3167C13.6755 27.1422 14.628 25.475 14.9087 23.6382C15.1894 21.8015 14.7783 19.9259 13.755 18.375L21.075 11.04L23.19 13.17C23.3302 13.309 23.4964 13.419 23.6792 13.4937C23.8619 13.5683 24.0576 13.6061 24.255 13.605C24.4524 13.6061 24.6481 13.5683 24.8309 13.4937C25.0136 13.419 25.1799 13.309 25.32 13.17C25.4606 13.0306 25.5722 12.8647 25.6484 12.6819C25.7245 12.4991 25.7637 12.303 25.7637 12.105C25.7637 11.907 25.7245 11.7109 25.6484 11.5281C25.5722 11.3454 25.4606 11.1794 25.32 11.04L23.19 9L25.32 6.87L27.435 9C27.5752 9.13903 27.7414 9.24901 27.9242 9.32366C28.1069 9.39831 28.3026 9.43614 28.5 9.435C28.6974 9.43614 28.8931 9.39831 29.0759 9.32366C29.2586 9.24901 29.4249 9.13903 29.565 9C29.7173 8.85954 29.8388 8.68906 29.9219 8.49931C30.005 8.30956 30.0479 8.10466 30.0479 7.8975C30.0479 7.69035 30.005 7.48544 29.9219 7.29569C29.8388 7.10595 29.7173 6.93547 29.565 6.795V6.795ZM7.50002 27C6.61001 27 5.73998 26.7361 4.99996 26.2416C4.25993 25.7472 3.68316 25.0443 3.34256 24.2221C3.00197 23.3998 2.91286 22.495 3.08649 21.6221C3.26012 20.7492 3.68871 19.9474 4.31804 19.318C4.94738 18.6887 5.7492 18.2601 6.62212 18.0865C7.49503 17.9128 8.39983 18.002 9.2221 18.3425C10.0444 18.6831 10.7472 19.2599 11.2416 19.9999C11.7361 20.74 12 21.61 12 22.5C12 23.6935 11.5259 24.8381 10.682 25.682C9.83809 26.5259 8.6935 27 7.50002 27Z" fill="black"/>
</svg>
