<svg width="31" height="30" viewBox="0 0 31 30" fill="none" xmlns="http://www.w3.org/2000/svg">
<path d="M15.5 0C12.5907 0.00552755 9.74584 0.856967 7.31186 2.45061C4.87787 4.04425 2.95986 6.31131 1.79142 8.97565C0.622992 11.64 0.254576 14.5866 0.731052 17.4566C1.20753 20.3266 2.50833 22.9961 4.47501 25.14V25.14C5.87965 26.6626 7.58443 27.8777 9.48192 28.7088C11.3794 29.5399 13.4285 29.969 15.5 29.969C17.5715 29.969 19.6206 29.5399 21.5181 28.7088C23.4156 27.8777 25.1204 26.6626 26.525 25.14V25.14C28.4917 22.9961 29.7925 20.3266 30.269 17.4566C30.7454 14.5866 30.377 11.64 29.2086 8.97565C28.0402 6.31131 26.1221 4.04425 23.6882 2.45061C21.2542 0.856967 18.4093 0.00552755 15.5 0V0ZM15.5 27C12.3927 26.9953 9.40838 25.7854 7.17501 23.625C7.85308 21.9743 9.00656 20.5624 10.4889 19.5688C11.9712 18.5752 13.7155 18.0447 15.5 18.0447C17.2845 18.0447 19.0288 18.5752 20.5111 19.5688C21.9935 20.5624 23.1469 21.9743 23.825 23.625C21.5916 25.7854 18.6073 26.9953 15.5 27ZM12.5 12C12.5 11.4067 12.676 10.8266 13.0056 10.3333C13.3352 9.83994 13.8038 9.45542 14.352 9.22836C14.9001 9.0013 15.5033 8.94189 16.0853 9.05764C16.6672 9.1734 17.2018 9.45912 17.6213 9.87868C18.0409 10.2982 18.3266 10.8328 18.4424 11.4147C18.5581 11.9967 18.4987 12.5999 18.2717 13.1481C18.0446 13.6962 17.6601 14.1648 17.1667 14.4944C16.6734 14.8241 16.0934 15 15.5 15C14.7044 15 13.9413 14.6839 13.3787 14.1213C12.8161 13.5587 12.5 12.7957 12.5 12ZM25.865 21C24.5248 18.7076 22.4621 16.9245 20 15.93C20.7638 15.064 21.2614 13.996 21.4332 12.8542C21.605 11.7123 21.4437 10.5452 20.9686 9.49275C20.4936 8.44032 19.7249 7.54734 18.7549 6.92095C17.7849 6.29456 16.6547 5.96137 15.5 5.96137C14.3453 5.96137 13.2152 6.29456 12.2452 6.92095C11.2751 7.54734 10.5065 8.44032 10.0314 9.49275C9.55631 10.5452 9.39499 11.7123 9.56681 12.8542C9.73862 13.996 10.2363 15.064 11 15.93C8.53791 16.9245 6.47522 18.7076 5.13501 21C4.06693 19.1807 3.50259 17.1097 3.50001 15C3.50001 11.8174 4.76429 8.76516 7.01473 6.51472C9.26517 4.26428 12.3174 3 15.5 3C18.6826 3 21.7349 4.26428 23.9853 6.51472C26.2357 8.76516 27.5 11.8174 27.5 15C27.4974 17.1097 26.9331 19.1807 25.865 21V21Z" fill="black"/>
</svg>
